<svg width="25" height="25" viewBox="0 0 25 25" fill="none" xmlns="http://www.w3.org/2000/svg">
<path d="M19.1666 22.513L19.4283 21.7209L19.0649 21.6008L18.7366 21.7993L19.1666 22.513ZM22.4999 19.1778L21.7983 18.7275L21.5833 19.0644L21.7099 19.4413L22.4999 19.1778ZM24.1666 24.164L23.9049 24.9578C24.0519 25.0064 24.2094 25.0132 24.36 24.9773C24.5105 24.9413 24.6481 24.8641 24.7573 24.7544C24.8665 24.6446 24.943 24.5066 24.9782 24.3558C25.0134 24.205 25.0059 24.0473 24.9566 23.9005L24.1666 24.164ZM18.7366 21.7993C17.1433 22.7582 14.5949 23.3319 12.5 23.3319V24.9995C14.8083 24.9995 17.6766 24.3825 19.5966 23.2268L18.7366 21.7993ZM12.5 23.3302C6.51664 23.3302 1.66666 18.4807 1.66666 12.4972H0C0.000437679 14.1393 0.324106 15.7652 0.952524 17.282C1.58094 18.7989 2.5018 20.1771 3.66253 21.3379C4.82326 22.4986 6.20112 23.4193 7.71745 24.0473C9.23378 24.6753 10.8589 24.9983 12.5 24.9978V23.3302ZM1.66666 12.4972C1.66799 9.62357 2.81004 6.86977 4.84163 4.83856C6.87322 2.80735 9.62796 1.66675 12.5 1.66763V4.45732e-07C9.18593 -0.00088431 6.00727 1.31541 3.66312 3.65936C1.31897 6.00332 0.00132584 9.18129 0 12.4972H1.66666ZM12.5 1.66763C18.4833 1.66763 23.3332 6.51711 23.3332 12.4989H24.9999C24.9986 9.18295 23.6809 6.00332 21.3368 3.65936C18.9926 1.31541 15.814 -0.00088431 12.5 4.45732e-07V1.66763ZM23.3332 12.4989C23.3332 14.7185 22.8399 17.0982 21.7983 18.7275L23.2016 19.628C24.4766 17.6352 24.9999 14.9036 24.9999 12.4989H23.3332ZM18.9049 23.3052L23.9049 24.9578L24.4282 23.3735L19.4283 21.7226L18.9049 23.3052ZM24.9566 23.9005L23.2899 18.9143L21.7099 19.4413L23.3766 24.4292L24.9566 23.9005Z" fill="white"/>
</svg>
