<svg width="26" height="26" viewBox="0 0 26 26" fill="none" xmlns="http://www.w3.org/2000/svg">
<path d="M0.599609 12.7301C0.599609 9.84014 0.599609 6.94014 0.599609 4.05014C0.599609 2.13014 1.7396 0.640145 3.5896 0.140145C3.9396 0.0401445 4.31958 0.0101435 4.68958 0.0101435C7.92957 0.0101435 11.1797 0.0201452 14.4197 0.00014516C16.8897 -0.0198548 18.6096 2.03014 18.4996 4.10014C18.4696 4.70014 18.4996 5.29014 18.4996 5.89014C18.4996 6.54014 18.1197 6.96015 17.5397 6.97015C16.9697 6.97015 16.5397 6.55015 16.5197 5.93015C16.4997 5.32015 16.5197 4.71014 16.5197 4.10014C16.5197 2.83014 15.6997 2.01014 14.4297 2.01014C11.1897 2.01014 7.93958 2.01014 4.69958 2.01014C3.42958 2.01014 2.60961 2.83014 2.59961 4.10014C2.59961 9.87014 2.59961 15.6501 2.59961 21.4201C2.59961 22.6901 3.41958 23.5001 4.69958 23.5101C7.93958 23.5101 11.1897 23.5101 14.4297 23.5101C15.6997 23.5101 16.5097 22.6801 16.5197 21.4201C16.5197 20.8101 16.5097 20.2001 16.5197 19.5901C16.5297 19.0601 16.8497 18.6701 17.2997 18.5701C17.7497 18.4701 18.1897 18.6801 18.3997 19.0901C18.4397 19.1601 18.4796 19.2401 18.4796 19.3101C18.4496 20.3901 18.5396 21.5001 18.3396 22.5501C18.0096 24.2501 16.4296 25.4801 14.6996 25.4901C11.2696 25.5201 7.83967 25.5301 4.40967 25.4901C2.31967 25.4701 0.619619 23.7201 0.609619 21.6201C0.589619 18.6601 0.609619 15.7001 0.609619 12.7401L0.599609 12.7301Z" fill="white"/>
<path d="M23.1588 11.6901C22.6788 11.2201 22.1888 10.7601 21.7188 10.2901C21.3488 9.92011 21.2587 9.50011 21.4387 9.10011C21.7187 8.50011 22.4888 8.31011 22.9688 8.76011C23.8188 9.57011 24.6688 10.3901 25.4488 11.2701C26.1988 12.1201 26.1488 13.5801 25.3688 14.4201C24.6188 15.2401 23.8188 16.0101 23.0188 16.7901C22.6088 17.1901 22.0088 17.1601 21.6288 16.7701C21.2388 16.3801 21.2288 15.8001 21.6288 15.3801C22.1188 14.8701 22.6488 14.3901 23.1588 13.8901C23.1388 13.8501 23.1188 13.8201 23.1088 13.7801C22.9688 13.7801 22.8388 13.7801 22.6988 13.7801C18.9388 13.7801 15.1889 13.7801 11.4289 13.7801C11.0189 13.7801 10.6687 13.6801 10.4387 13.3101C10.0387 12.6601 10.4488 11.8801 11.2288 11.7901C11.3588 11.7801 11.4888 11.7901 11.6288 11.7901C15.3088 11.7901 18.9888 11.7901 22.6588 11.7901H23.0788L23.1288 11.6901H23.1588Z" fill="white"/>
</svg>
