<svg width="27" height="27" viewBox="0 0 27 27" fill="none" xmlns="http://www.w3.org/2000/svg">
<path d="M13.5 26C20.4036 26 26 20.4036 26 13.5C26 6.59644 20.4036 1 13.5 1C6.59644 1 1 6.59644 1 13.5C1 20.4036 6.59644 26 13.5 26Z" stroke="white" stroke-width="1.5" stroke-miterlimit="10"/>
<path d="M14.4509 9.6525L14.9909 11.3125C15.1209 11.7025 15.4809 11.9625 15.8909 11.9625H17.6409C18.5609 11.9625 18.9409 13.1325 18.2009 13.6725L16.7809 14.7025C16.4509 14.9425 16.3109 15.3725 16.4409 15.7625L16.9809 17.4225C17.2609 18.2925 16.2709 19.0225 15.5209 18.4825L14.1009 17.4525C13.7709 17.2125 13.3209 17.2125 12.9909 17.4525L11.5709 18.4825C10.8309 19.0225 9.83087 18.2925 10.1109 17.4225L10.6509 15.7625C10.7809 15.3725 10.6409 14.9425 10.3109 14.7025L8.89087 13.6725C8.15087 13.1325 8.53087 11.9625 9.45087 11.9625H11.2009C11.6109 11.9625 11.9709 11.7025 12.1009 11.3125L12.6409 9.6525C12.9209 8.7825 14.1609 8.7825 14.4409 9.6525H14.4509Z" fill="white"/>
</svg>
