<svg width="340" height="340" viewBox="0 0 340 340" fill="none" xmlns="http://www.w3.org/2000/svg">
<path d="M64.1499 56.9992C65.3489 56.6662 66.548 56 67.822 56C110.164 56 152.431 56 194.772 56C195.597 56.3331 196.421 56.7494 197.32 56.8327C212.009 58.6646 225.723 63.8272 238.613 71.8209C310.557 116.536 312.955 233.194 243.109 281.823C220.552 297.477 195.897 301.308 170.042 300.392C166.894 300.308 166.37 298.227 166.37 295.312C166.37 286.652 166.52 278.076 166.37 269.416C166.37 265.752 167.644 264.42 170.716 263.754C175.288 262.754 180.009 261.755 184.281 259.757C192.599 255.843 198.669 249.099 203.166 239.939H128.899C128.824 241.355 128.674 242.354 128.674 243.353C128.674 260.423 128.674 277.493 128.674 294.563C128.674 298.476 127.7 300.475 123.728 300.392C116.159 300.142 108.515 300.225 100.946 300.392C97.3489 300.475 96.1497 298.726 96.1497 294.896C96.1497 243.02 96.1497 191.144 96.1497 139.268C96.1497 135.521 97.124 133.772 100.871 133.856C123.503 134.022 146.211 133.523 168.843 134.105C212.534 135.188 245.732 178.237 240.487 226.366C240.112 229.947 239.662 233.527 239.213 237.108C239.662 237.524 240.187 237.857 240.636 238.274C241.086 237.191 241.461 236.025 242.06 235.11C262.294 208.047 267.915 177.738 255.625 145.263C243.484 113.039 221.002 93.9702 189.077 92.3881C160.674 91.0558 132.196 91.8052 103.719 91.9718C98.323 91.9718 94.2762 90.3897 90.4542 85.9765C81.836 75.9843 72.8431 66.575 64 56.8327L64.1499 56.9992ZM128.974 203.468H206.388C203.541 187.397 187.878 171.909 172.215 170.743C159.625 169.827 147.035 170.244 134.37 170.16C132.571 170.16 130.848 170.41 128.899 170.494V203.468H128.974Z" fill="black"/>
<g style="mix-blend-mode:darken">
<circle cx="170" cy="170" r="170" fill="white"/>
</g>
</svg>
